<?xml version="1.0" encoding="UTF-8" standalone="no" ?>
<!DOCTYPE svg PUBLIC "-//W3C//DTD SVG 1.1//EN" "http://www.w3.org/Graphics/SVG/1.1/DTD/svg11.dtd">
<svg xmlns="http://www.w3.org/2000/svg" xmlns:xlink="http://www.w3.org/1999/xlink" version="1.1"  viewBox="0 0 500 500" xml:space="preserve">
<desc>Created with Fabric.js 4.6.0</desc>
<defs>
</defs>
<g transform="matrix(0.83 0 0 0.83 325.24 330.38)" id="oTTTnywJL-DJuk739jFXE"  >
<path style="stroke: rgb(20,94,138); stroke-width: 0; stroke-dasharray: none; stroke-linecap: butt; stroke-dashoffset: 0; stroke-linejoin: miter; stroke-miterlimit: 4; fill: rgb(190,191,248); fill-rule: nonzero; opacity: 1;" vector-effect="non-scaling-stroke"  transform=" translate(0, 0)" d="M -87.31618 -50.27107 C -87.31618 -70.73052 -70.73052 -87.31619 -50.271060000000006 -87.31619 L 50.271069999999995 -87.31619 L 50.271069999999995 -87.31619 C 70.73052 -87.31619 87.31618999999999 -70.73053 87.31618999999999 -50.27107000000001 L 87.31618999999999 50.27105999999999 L 87.31618999999999 50.27105999999999 C 87.31618999999999 70.73051 70.73052999999999 87.31617999999999 50.271069999999995 87.31617999999999 L -50.271060000000006 87.31617999999999 L -50.271060000000006 87.31617999999999 C -70.73051000000001 87.31617999999999 -87.31618 70.73051999999998 -87.31618 50.27105999999999 z" stroke-linecap="round" />
</g>
<g transform="matrix(0.36 0 0 0.36 325.04 304.63)" id="p-YEpVBOlDpcS4hhwHnMB"  >
<path style="stroke: rgb(0,0,0); stroke-width: 1; stroke-dasharray: none; stroke-linecap: butt; stroke-dashoffset: 0; stroke-linejoin: miter; stroke-miterlimit: 4; fill: rgb(255,255,255); fill-opacity: 0; fill-rule: nonzero; opacity: 1;" vector-effect="non-scaling-stroke"  transform=" translate(0, 0)" d="M -55.02831 0 C 78.72169 0 91.22169 0 91.22169 0 C 91.22169 0 -188.77831 0 -55.028310000000005 0 z" stroke-linecap="round" />
</g>
<g transform="matrix(0.36 0 0 0.36 325.24 354.63)" id="orw-GXQvJoboAWYimHJiC"  >
<path style="stroke: rgb(0,0,0); stroke-width: 1; stroke-dasharray: none; stroke-linecap: butt; stroke-dashoffset: 0; stroke-linejoin: miter; stroke-miterlimit: 4; fill: rgb(255,255,255); fill-opacity: 0; fill-rule: nonzero; opacity: 1;" vector-effect="non-scaling-stroke"  transform=" translate(0, 0)" d="M -55.02831 0 C 78.72169 0 91.22169 0 91.22169 0 C 91.22169 0 -188.77831 0 -55.028310000000005 0 z" stroke-linecap="round" />
</g>
<g transform="matrix(0.36 0 0 0.36 325.24 330.88)" id="9D7nKIW-8lTYOMZf41xWq"  >
<path style="stroke: rgb(0,0,0); stroke-width: 1; stroke-dasharray: none; stroke-linecap: butt; stroke-dashoffset: 0; stroke-linejoin: miter; stroke-miterlimit: 4; fill: rgb(255,255,255); fill-opacity: 0; fill-rule: nonzero; opacity: 1;" vector-effect="non-scaling-stroke"  transform=" translate(0, 0)" d="M -55.02831 0 C 78.72169 0 91.22169 0 91.22169 0 C 91.22169 0 -188.77831 0 -55.028310000000005 0 z" stroke-linecap="round" />
</g>
</svg>